<?xml version="1.0" standalone="no"?>
<!DOCTYPE svg PUBLIC "-//W3C//DTD SVG 20010904//EN"
 "http://www.w3.org/TR/2001/REC-SVG-20010904/DTD/svg10.dtd">
<svg version="1.0" xmlns="http://www.w3.org/2000/svg"
 width="435.000000pt" height="475.000000pt" viewBox="0 0 435.000000 475.000000"
 preserveAspectRatio="xMidYMid meet">

<g transform="translate(0.000000,475.000000) scale(0.100000,-0.100000)"
fill="#000000" stroke="none">
<path d="M1540 4636 c0 -2 40 -27 89 -56 49 -28 91 -54 93 -58 2 -4 19 -14 38
-23 56 -27 181 -119 175 -129 -3 -6 1 -7 9 -4 9 4 18 0 22 -10 3 -8 22 -25 42
-38 59 -35 163 -129 155 -140 -3 -7 -1 -8 5 -4 11 6 192 -162 192 -178 0 -3
28 -34 62 -68 66 -67 198 -234 198 -250 0 -10 60 -91 72 -96 4 -2 31 -41 59
-88 28 -46 53 -84 56 -84 17 0 -160 265 -272 405 -152 191 -388 420 -599 580
-111 84 -396 258 -396 241z"/>
<path d="M2181 4534 c7 -10 55 -73 104 -139 435 -578 727 -1325 824 -2105 29
-229 41 -428 41 -681 0 -202 2 -223 30 -345 38 -166 68 -334 90 -504 l17 -135
8 178 c8 187 1 609 -16 932 -18 353 -53 640 -104 850 -13 55 -40 174 -60 265
-117 526 -294 963 -526 1294 -75 107 -267 303 -358 366 -36 24 -58 35 -50 24z"/>
<path d="M1588 4500 c10 -19 49 -84 84 -145 287 -483 579 -1044 771 -1481 291
-661 511 -1369 556 -1789 20 -183 41 -508 48 -727 7 -251 -7 -228 139 -228
l91 0 7 47 c8 63 -11 385 -34 568 -92 720 -334 1451 -742 2245 -397 773 -716
1310 -878 1480 -49 52 -58 58 -42 30z"/>
<path d="M2740 3447 c0 -8 9 -22 21 -33 11 -10 36 -47 56 -82 19 -35 38 -61
40 -58 6 6 -93 173 -108 181 -5 4 -9 0 -9 -8z"/>
<path d="M742 3425 c8 -8 557 -9 565 -2 3 4 -123 7 -282 7 -159 0 -286 -2
-283 -5z"/>
<path d="M1444 3421 c3 -4 64 -11 136 -15 73 -4 146 -9 163 -13 23 -4 29 -3
22 5 -6 7 -66 14 -140 17 -72 3 -143 8 -158 10 -15 3 -26 1 -23 -4z"/>
<path d="M1886 3380 c9 -7 30 -13 169 -45 33 -8 86 -23 118 -34 32 -11 55 -16
52 -11 -3 5 -43 21 -89 35 -102 31 -262 66 -250 55z"/>
<path d="M4137 3198 c-349 -347 -607 -909 -751 -1639 -63 -316 -72 -465 -79
-1304 l-1 -130 72 -3 c40 -2 72 1 72 5 0 4 -7 51 -15 103 -40 260 -40 669 0
970 86 653 307 1246 670 1795 50 77 99 154 107 170 23 45 48 135 38 135 -5 0
-56 -46 -113 -102z"/>
<path d="M1980 3280 c0 -5 5 -10 10 -10 6 0 10 5 10 10 0 6 -4 10 -10 10 -5 0
-10 -4 -10 -10z"/>
<path d="M2220 3250 c0 -5 5 -10 10 -10 6 0 10 5 10 10 0 6 -4 10 -10 10 -5 0
-10 -4 -10 -10z"/>
<path d="M2505 3145 c112 -70 192 -135 280 -226 73 -75 72 -76 -10 -23 -96 61
-255 133 -255 116 0 -14 16 -28 75 -66 46 -30 55 -41 42 -45 -12 -5 -2 -12 35
-25 41 -14 72 -37 134 -100 103 -104 244 -313 244 -363 0 -28 2 -32 14 -21 11
11 11 18 -1 46 -8 19 -15 62 -17 96 -2 56 -8 72 -50 141 -127 202 -292 364
-502 490 -94 57 -85 40 11 -20z m119 -179 c102 -47 227 -129 274 -179 46 -51
96 -133 98 -162 0 -11 7 -33 16 -50 15 -30 34 -94 25 -85 -3 3 -29 41 -57 85
-29 44 -72 103 -96 133 -24 30 -42 57 -39 62 2 4 -5 16 -18 26 l-22 19 19 -25
c11 -14 2 -7 -20 16 -21 23 -58 51 -81 62 -23 12 -54 33 -70 48 -15 14 -47 37
-70 51 -40 23 -51 33 -37 33 3 0 38 -15 78 -34z"/>
<path d="M2905 2710 c10 -11 20 -20 23 -20 3 0 -3 9 -13 20 -10 11 -20 20 -23
20 -3 0 3 -9 13 -20z"/>
<path d="M2871 3025 c2 -5 20 -44 40 -85 46 -93 61 -142 28 -90 -59 94 -92
140 -102 140 -6 0 -1 -10 10 -22 28 -31 64 -91 129 -212 29 -55 54 -99 54 -96
0 3 -16 50 -35 105 -19 55 -28 91 -20 81 32 -42 13 5 -36 85 -45 76 -78 121
-68 94z"/>
<path d="M2100 2696 c0 -2 8 -10 18 -17 15 -13 16 -12 3 4 -13 16 -21 21 -21
13z"/>
<path d="M2140 2621 c0 -11 51 -21 114 -21 79 0 174 -27 255 -71 40 -23 70
-36 67 -31 -3 6 -41 29 -83 52 -68 37 -93 44 -208 61 -151 22 -145 22 -145 10z"/>
<path d="M2772 2501 c6 -10 24 -26 39 -35 53 -31 151 -173 250 -359 32 -62 59
-108 59 -103 0 5 -32 70 -71 145 -78 151 -78 156 5 31 53 -81 79 -103 35 -30
-18 28 -22 51 -22 125 -1 84 -1 85 -4 18 -2 -40 -7 -73 -11 -73 -4 0 -23 24
-42 52 -64 94 -290 312 -238 229z"/>
<path d="M2859 2278 c5 -13 26 -48 46 -78 40 -59 124 -221 186 -360 21 -47 39
-79 39 -73 0 19 -84 205 -146 321 -30 57 -51 101 -47 99 5 -3 46 -57 93 -120
46 -64 86 -114 88 -112 9 8 -249 345 -264 345 -2 0 0 -10 5 -22z"/>
</g>
</svg>
